<?xml version="1.0" encoding="utf-8"?>
<!-- Generator: Adobe Illustrator 16.0.4, SVG Export Plug-In . SVG Version: 6.00 Build 0)  -->
<!DOCTYPE svg PUBLIC "-//W3C//DTD SVG 1.1//EN" "http://www.w3.org/Graphics/SVG/1.1/DTD/svg11.dtd">
<svg version="1.1" id="Layer_1" xmlns="http://www.w3.org/2000/svg" xmlns:xlink="http://www.w3.org/1999/xlink" x="0px" y="0px"
	 width="500px" height="500px" viewBox="0 0 500 500" enable-background="new 0 0 500 500" xml:space="preserve">
<path d="M249.775,130.79c31.839,0,61.772,12.398,84.286,34.912c22.513,22.513,34.911,52.446,34.911,84.285
	c0,31.838-12.398,61.771-34.911,84.284c-22.514,22.514-52.447,34.912-84.286,34.912c-31.838,0-61.771-12.398-84.284-34.912
	c-22.513-22.513-34.911-52.445-34.911-84.284c0-31.839,12.398-61.771,34.911-84.285S217.938,130.79,249.775,130.79 M249.775,113.761
	c-75.232,0-136.224,60.99-136.224,136.225c0,75.234,60.991,136.224,136.224,136.224c75.234,0,136.227-60.99,136.227-136.224
	C386.002,174.751,325.01,113.761,249.775,113.761L249.775,113.761z M273.858,249.986l39.043-39.044
	c6.649-6.65,6.649-17.431,0-24.081c-6.651-6.65-17.433-6.65-24.083,0l-39.043,39.042l-39.043-39.042
	c-6.65-6.65-17.432-6.65-24.082,0c-6.648,6.65-6.648,17.431,0,24.081l39.044,39.044l-39.044,39.043
	c-6.648,6.649-6.648,17.432,0,24.081c3.326,3.324,7.686,4.987,12.042,4.987s8.716-1.663,12.04-4.987l39.043-39.043l39.043,39.043
	c3.326,3.324,7.685,4.987,12.043,4.987c4.357,0,8.715-1.663,12.04-4.987c6.649-6.649,6.649-17.432,0-24.081L273.858,249.986z"/>
</svg>
